# xmcd
#
# Track frame offsets:
#  150
#  17922
#  30505
#  46825
#  55222
#  74187
#  83332
#  98012
#  108045
#  120805
#  134057
#
# Disc length: 1995 seconds
#
# Revision: 2
# Processed by: cddbd v1.5.1PL2 Copyright (c) Steve Scherf et al.
# Submitted via: Collectorz.com_Music_Collector 6.10
#
DISCID=8507c90b
DTITLE=Various Artist - Sweet Home Chicago
DYEAR=1994
DGENRE=Blues - Chicago Blues
TTITLE0=Luther Allison - My Luck Dont Ever Change
TTITLE1=Luther Allison - Gotta Move On Up
TTITLE2=Louis Meyers - Top Of The Harp
TTITLE3=Louis Meyers - Thats All Right
TTITLE4=Big Mojo - Move On Out Of Town
TTITLE5=Big Mojo - Slow Down Baby
TTITLE6=Magic Sam - Thats Why Im Crying
TTITLE7=Magic Sam and Eddie Shaw - Riding High
TTITLE8=Magic Sam - Bad Luck Blues
TTITLE9=Magic Sam and Eddie Shaw - Blues For The West Side
TTITLE10=Lucky Lopez - Coming Down With The Blues
EXTD=
EXTT0=
EXTT1=
EXTT2=
EXTT3=
EXTT4=
EXTT5=
EXTT6=
EXTT7=
EXTT8=
EXTT9=
EXTT10=
PLAYORDER=
